M48
; DRILL file {KiCad (6.0.2)} date Fri Apr  1 20:19:54 2022
; FORMAT={-:-/ absolute / inch / decimal}
; #@! TF.CreationDate,2022-04-01T20:19:54+02:00
; #@! TF.GenerationSoftware,Kicad,Pcbnew,(6.0.2)
; #@! TF.FileFunction,Plated,1,2,PTH
FMAT,2
INCH
; #@! TA.AperFunction,Plated,PTH,ComponentDrill
T1C0.0393
; #@! TA.AperFunction,Plated,PTH,ComponentDrill
T2C0.0394
; #@! TA.AperFunction,Plated,PTH,ComponentDrill
T3C0.0402
; #@! TA.AperFunction,Plated,PTH,ComponentDrill
T4C0.0409
; #@! TA.AperFunction,Plated,PTH,ComponentDrill
T5C0.0472
; #@! TA.AperFunction,Plated,PTH,ComponentDrill
T6C0.0511
; #@! TA.AperFunction,Plated,PTH,ComponentDrill
T7C0.0551
%
G90
G05
T1
X4.1827Y-1.9906
X4.1827Y-2.0906
X4.1827Y-2.1906
X4.1827Y-2.7929
X4.1827Y-2.8929
X4.1827Y-2.9929
X4.1827Y-3.5547
X4.1827Y-3.6547
X4.1827Y-3.7547
X4.1827Y-3.8547
X4.1827Y-4.087
X4.1827Y-4.187
X4.1827Y-4.287
X4.1913Y-4.9646
X4.2913Y-4.9646
X4.3913Y-4.9646
X4.4189Y-1.9929
X4.4189Y-2.6929
X4.4189Y-2.9228
X4.4189Y-3.6228
X4.4189Y-3.8496
X4.4189Y-4.5496
X4.4913Y-4.9646
X4.6551Y-1.9929
X4.6551Y-2.6929
X4.6551Y-2.9228
X4.6551Y-3.6228
X4.6551Y-3.8496
X4.6551Y-4.5496
X5.3299Y-2.2047
X5.5299Y-1.9994
X5.6299Y-1.9994
X5.7299Y-1.9994
X5.9055Y-4.8071
X5.9055Y-4.9039
X5.9055Y-5.0039
X5.9055Y-5.1039
X6.0299Y-2.2047
X6.3656Y-1.9994
X6.4567Y-2.1591
X6.4567Y-2.8591
X6.4656Y-1.9994
X6.5656Y-1.9994
X6.7472Y-3.5433
X7.4016Y-2.6134
X7.4016Y-3.3134
X7.4472Y-3.5433
X7.6378Y-2.7346
X7.6378Y-2.8346
X7.6378Y-2.9346
X7.6378Y-3.5032
X7.6378Y-3.6032
X7.6378Y-3.7032
X7.6378Y-3.9953
X7.6378Y-4.6953
T2
X5.0743Y-3.0717
X5.0743Y-3.1717
X5.0743Y-3.2717
X5.0743Y-3.3717
X5.3543Y-3.0717
X5.3543Y-3.1717
X5.3543Y-3.2717
X5.3543Y-3.3717
X7.2047Y-3.8953
X7.2047Y-3.9953
X7.2047Y-4.0953
X7.2047Y-4.1953
X7.2047Y-4.2953
X7.2047Y-4.3953
X7.2047Y-4.4953
X7.2047Y-4.5953
X7.2047Y-4.6953
X7.2047Y-4.7953
X7.2047Y-4.8953
X7.2047Y-4.9953
X7.2047Y-5.0953
X7.2047Y-5.1953
X7.2047Y-5.2953
X7.2047Y-5.3953
T3
X5.6057Y-3.6685
X5.6057Y-3.7685
X5.6057Y-3.8685
X5.6057Y-3.9685
X5.6057Y-4.0685
X5.6057Y-4.1685
X5.6057Y-4.2685
X5.6057Y-4.3685
X5.7057Y-3.6685
X5.7057Y-3.7685
X5.7057Y-3.8685
X5.7057Y-3.9685
X5.7057Y-4.0685
X5.7057Y-4.1685
X5.7057Y-4.2685
X5.7057Y-4.3685
X6.0799Y-5.413
X6.0799Y-5.513
X6.1799Y-5.413
X6.1799Y-5.513
X6.2799Y-5.413
X6.2799Y-5.513
X6.3799Y-5.413
X6.3799Y-5.513
X6.4017Y-3.0195
X6.4017Y-3.1195
X6.4017Y-3.2195
X6.4017Y-3.3195
X6.4017Y-3.4195
X6.4017Y-3.5195
X6.4017Y-3.6195
X6.4017Y-3.7195
X6.4027Y-3.8505
X6.4027Y-3.9505
X6.4027Y-4.0505
X6.4027Y-4.1505
X6.4027Y-4.2505
X6.4027Y-4.3505
X6.4027Y-4.4505
X6.4027Y-4.5505
X6.4799Y-5.413
X6.4799Y-5.513
X6.5017Y-3.0195
X6.5017Y-3.1195
X6.5017Y-3.2195
X6.5017Y-3.3195
X6.5017Y-3.4195
X6.5017Y-3.5195
X6.5017Y-3.6195
X6.5017Y-3.7195
X6.5027Y-3.8505
X6.5027Y-3.9505
X6.5027Y-4.0505
X6.5027Y-4.1505
X6.5027Y-4.2505
X6.5027Y-4.3505
X6.5027Y-4.4505
X6.5027Y-4.5505
X6.5799Y-5.413
X6.5799Y-5.513
X6.6799Y-5.413
X6.6799Y-5.513
X6.7799Y-5.413
X6.7799Y-5.513
T4
X5.2407Y-5.1735
X5.2407Y-5.2735
X5.2407Y-5.3735
X5.2407Y-5.4735
X5.3407Y-5.1735
X5.3407Y-5.2735
X5.3407Y-5.3735
X5.3407Y-5.4735
T5
X4.1827Y-2.513
X4.1827Y-3.3004
X4.1827Y-4.5496
X4.1921Y-5.25
X4.389Y-5.25
X4.6063Y-5.25
X4.7587Y-4.9626
X4.8531Y-5.2362
X4.912Y-2.0175
X5.1119Y-2.0175
X5.6299Y-3.0461
X5.6299Y-3.2142
X5.6299Y-3.3717
X6.1378Y-4.9043
X6.1398Y-4.7173
X6.1423Y-2.4623
X6.1423Y-2.7598
X6.1734Y-1.9994
X6.6535Y-2.2598
X6.6535Y-2.7598
X6.8504Y-3.2702
X6.8504Y-3.7402
X7.1654Y-3.2702
X7.3504Y-3.7402
X7.5975Y-2.0497
X7.5975Y-2.2496
X7.6378Y-3.3004
T6
X4.9135Y-2.4623
X7.1654Y-2.0512
T7
X4.9135Y-2.7598
X5.1119Y-2.4623
X5.1119Y-2.7598
X5.3103Y-2.4623
X5.3103Y-2.7598
X5.9055Y-2.4623
X5.9055Y-2.7598
X6.8679Y-2.0512
X6.8679Y-2.2496
X6.8679Y-2.448
X6.8679Y-3.0432
X7.1654Y-2.2496
X7.1654Y-2.448
X7.1654Y-3.0432
T0
M30
