%TF.GenerationSoftware,KiCad,Pcbnew,(6.0.2)*%
%TF.CreationDate,2022-04-01T20:19:04+02:00*%
%TF.ProjectId,beanbot_312,6265616e-626f-4745-9f33-31322e6b6963,rev?*%
%TF.SameCoordinates,Original*%
%TF.FileFunction,Paste,Top*%
%TF.FilePolarity,Positive*%
%FSLAX46Y46*%
G04 Gerber Fmt 4.6, Leading zero omitted, Abs format (unit mm)*
G04 Created by KiCad (PCBNEW (6.0.2)) date 2022-04-01 20:19:04*
%MOMM*%
%LPD*%
G01*
G04 APERTURE LIST*
%ADD10O,1.798320X3.599180*%
%ADD11O,3.599180X1.798320*%
%ADD12R,2.032000X2.032000*%
%ADD13O,4.064000X2.032000*%
%ADD14C,3.302000*%
%ADD15R,2.032000X2.000000*%
%ADD16O,2.032000X4.000000*%
%ADD17O,2.032000X4.064000*%
%ADD18C,2.794000*%
%ADD19C,2.499360*%
%ADD20C,2.540000*%
%ADD21O,4.000000X2.000000*%
%ADD22R,2.000000X2.032000*%
%ADD23O,4.000000X2.032000*%
G04 APERTURE END LIST*
D10*
%TO.C,M38*%
X174000000Y-83061900D03*
%TD*%
D11*
%TO.C,M39*%
X156015100Y-70100000D03*
%TD*%
D12*
%TO.C,M43*%
X194000000Y-69460000D03*
D13*
X194000000Y-72000000D03*
X194000000Y-74540000D03*
%TD*%
D14*
%TO.C,M30*%
X192977140Y-57139360D03*
X192977140Y-52061900D03*
%TD*%
D11*
%TO.C,M2*%
X106240000Y-115560000D03*
%TD*%
D12*
%TO.C,M4*%
X106240000Y-108890000D03*
D13*
X106240000Y-106350000D03*
X106240000Y-103810000D03*
%TD*%
D11*
%TO.C,M23*%
X143000000Y-77370000D03*
%TD*%
D15*
%TO.C,M16*%
X114080000Y-126100000D03*
D16*
X111540000Y-126100000D03*
D17*
X109000000Y-126100000D03*
X106460000Y-126100000D03*
%TD*%
D11*
%TO.C,M51*%
X156015100Y-62543500D03*
%TD*%
D14*
%TO.C,M32*%
X129842560Y-51244280D03*
X124765100Y-51244280D03*
%TD*%
D18*
%TO.C,M29*%
X182000000Y-57139360D03*
D19*
X182000000Y-62178720D03*
D18*
X182000000Y-52100000D03*
X174443500Y-57139360D03*
X174443500Y-62178720D03*
X174443500Y-52100000D03*
X182000000Y-77296800D03*
X174443500Y-77296800D03*
%TD*%
D12*
%TO.C,M48*%
X161685100Y-50784280D03*
D17*
X164225100Y-50784280D03*
X166765100Y-50784280D03*
%TD*%
D10*
%TO.C,M17*%
X111480000Y-133350000D03*
%TD*%
D20*
%TO.C,M9*%
X112240000Y-92020000D03*
X112240000Y-74240000D03*
%TD*%
%TO.C,M11*%
X194000000Y-101480000D03*
X194000000Y-119260000D03*
%TD*%
D12*
%TO.C,M47*%
X194000000Y-88981900D03*
D13*
X194000000Y-91521900D03*
X194000000Y-94061900D03*
%TD*%
D10*
%TO.C,M42*%
X156803200Y-50784280D03*
%TD*%
D20*
%TO.C,M44*%
X189160000Y-90000000D03*
X171380000Y-90000000D03*
%TD*%
D11*
%TO.C,M12*%
X106240000Y-63830000D03*
%TD*%
%TO.C,M24*%
X143000000Y-81640000D03*
%TD*%
D12*
%TO.C,M46*%
X140460000Y-50784280D03*
D17*
X143000000Y-50784280D03*
X145540000Y-50784280D03*
%TD*%
D12*
%TO.C,M14*%
X106240000Y-55640000D03*
D13*
X106240000Y-53100000D03*
X106240000Y-50560000D03*
%TD*%
D10*
%TO.C,M28*%
X123270000Y-133000000D03*
%TD*%
%TO.C,M27*%
X117000000Y-133350000D03*
%TD*%
D17*
%TO.C,M36*%
X169000000Y-70100000D03*
X169000000Y-57400000D03*
%TD*%
D10*
%TO.C,M1*%
X120870000Y-126050000D03*
%TD*%
D11*
%TO.C,M41*%
X194000000Y-83830000D03*
%TD*%
D20*
%TO.C,M3*%
X118240000Y-115560000D03*
X118240000Y-97780000D03*
%TD*%
D11*
%TO.C,M6*%
X106240000Y-83830000D03*
%TD*%
D20*
%TO.C,M45*%
X164000000Y-54840000D03*
X164000000Y-72620000D03*
%TD*%
D11*
%TO.C,M20*%
X155950000Y-119820000D03*
%TD*%
D10*
%TO.C,M50*%
X182000000Y-83061900D03*
%TD*%
D13*
%TO.C,M35*%
X174000000Y-95000000D03*
X186700000Y-95000000D03*
%TD*%
D18*
%TO.C,M31*%
X129842560Y-62543500D03*
D19*
X134881920Y-62543500D03*
D18*
X124803200Y-62543500D03*
X129842560Y-70100000D03*
X134881920Y-70100000D03*
X124803200Y-70100000D03*
X150000000Y-62543500D03*
X150000000Y-70100000D03*
%TD*%
D21*
%TO.C,M25*%
X128888000Y-85640000D03*
X128888000Y-83100000D03*
X128888000Y-80560000D03*
X128888000Y-78020000D03*
X136000000Y-85640000D03*
X136000000Y-83100000D03*
X136000000Y-80560000D03*
X136000000Y-78020000D03*
%TD*%
D20*
%TO.C,M13*%
X118240000Y-68400000D03*
X118240000Y-50620000D03*
%TD*%
%TO.C,M40*%
X153160000Y-56000000D03*
X135380000Y-56000000D03*
%TD*%
D12*
%TO.C,M8*%
X106240000Y-76020000D03*
D13*
X106240000Y-73480000D03*
X106240000Y-70940000D03*
%TD*%
D20*
%TO.C,M15*%
X112240000Y-68400000D03*
X112240000Y-50620000D03*
%TD*%
D11*
%TO.C,M19*%
X155900000Y-124570000D03*
%TD*%
D22*
%TO.C,M10*%
X106240000Y-97910000D03*
D23*
X106240000Y-95370000D03*
D13*
X106240000Y-92830000D03*
X106240000Y-90290000D03*
%TD*%
D10*
%TO.C,M18*%
X106480000Y-133350000D03*
%TD*%
D20*
%TO.C,M37*%
X188000000Y-84160000D03*
X188000000Y-66380000D03*
%TD*%
D12*
%TO.C,M21*%
X150000000Y-129640000D03*
D13*
X150000000Y-127100000D03*
X150000000Y-124560000D03*
X150000000Y-122100000D03*
%TD*%
D20*
%TO.C,M7*%
X118240000Y-92020000D03*
X118240000Y-74240000D03*
%TD*%
%TO.C,M5*%
X112240000Y-115560000D03*
X112240000Y-97780000D03*
%TD*%
D11*
%TO.C,M26*%
X143000000Y-85640000D03*
%TD*%
M02*
